<svg xmlns="http://www.w3.org/2000/svg" viewBox="0 0 32 32" id="envelope-open"><path d="M6 30h20a4 4 0 0 0 4-4V13.88A3.87 3.87 0 0 0 26.54 10l-8-7A3.61 3.61 0 0 0 16 2a3.58 3.58 0 0 0-2.53 1l-8 7A3.87 3.87 0 0 0 2 13.88V26a4 4 0 0 0 4 4Zm8.83-25.52a1.67 1.67 0 0 1 2.39 0L24.54 11l-7.37 6.47a1.67 1.67 0 0 1-2.39-.05L7.46 11ZM4 13.88A1.88 1.88 0 0 1 5.65 12l7.77 6.81A3.61 3.61 0 0 0 16 19.9a3.58 3.58 0 0 0 2.53-1l7.82-6.9A1.88 1.88 0 0 1 28 13.88V26a2 2 0 0 1-2 2H6a2 2 0 0 1-2-2Z" data-name="Layer 51"></path></svg>